<svg xmlns="http://www.w3.org/2000/svg" viewBox="0 0 12.87 13.7"><defs><style>.cls-1{fill:#faf4cb;}</style></defs><g id="Layer_2" data-name="Layer 2"><g id="Layer_1-2" data-name="Layer 1"><path class="cls-1" d="M12.87,6.85,12,7.32C10.07,8.41,7.79,10,7,11.83a3.17,3.17,0,0,0-.25,1.87,1.42,1.42,0,0,1-.28-.2c-1.81-1.31-1.69-3.07,0-4.58.16-.15.34-.29.53-.44a13,13,0,0,1,3.34-1.63A12.37,12.37,0,0,1,7,5.21a5.89,5.89,0,0,1-.53-.44C4.76,3.27,4.64,1.52,6.45.2A2,2,0,0,1,6.73,0,3.12,3.12,0,0,0,7,1.88c.8,1.81,3.08,3.41,5,4.5Z"/><path class="cls-1" d="M3.66,7.85c-1.56.3-3.66-1-3.66-1s2.1-1.3,3.66-1A1,1,0,0,1,3.66,7.85Z"/></g></g></svg>