<svg xmlns="http://www.w3.org/2000/svg" viewBox="0 0 13.02 46.46"><defs><style>.cls-1{fill:#ffc5fa;}.cls-2{fill:none;stroke:#ffc5fa;stroke-miterlimit:10;stroke-width:0.5px;}</style></defs><g id="Layer_2" data-name="Layer 2"><g id="Layer_1-2" data-name="Layer 1"><rect class="cls-1" x="0.51" y="22" width="2.46" height="2.46" transform="translate(19.39 38.43) rotate(135)"/><rect class="cls-2" x="3.27" y="20.48" width="1.21" height="1.21" transform="translate(21.54 33.26) rotate(135)"/><rect class="cls-2" x="3.27" y="24.77" width="1.21" height="1.21" transform="translate(24.56 40.57) rotate(135)"/><path class="cls-1" d="M13,23.23l-.88.47C9.86,25,7.07,27,6.84,29.26a3.31,3.31,0,0,0,0,.63,1.42,1.42,0,0,1,0,.2l0,0a4.62,4.62,0,0,1-.53-.41c-1.41-1.2-1.34-2.72,0-4.09a6.11,6.11,0,0,1,.53-.47,11.67,11.67,0,0,1,3.63-1.87,11.46,11.46,0,0,1-3.63-1.86,4.88,4.88,0,0,1-.53-.48C5,19.53,4.9,18,6.31,16.8a4.62,4.62,0,0,1,.53-.41l0,0a1.18,1.18,0,0,1,0,.2,3.31,3.31,0,0,0,0,.63c.22,2.26,3,4.27,5.29,5.56Z"/><path class="cls-1" d="M8.3,46.46c1-1.69-.24-3.48-1.22-4.51a6.82,6.82,0,0,1-1.9-3.81,4.89,4.89,0,0,1,1.61-4.51v3.49a2.66,2.66,0,0,0,0,.63.31.31,0,0,0,0,.1,3.9,3.9,0,0,0,.55,1.52,6,6,0,0,0,5,2.7,3.36,3.36,0,0,1-3.24.12C9.61,43.13,10.21,44.7,8.3,46.46Z"/><path class="cls-1" d="M8.3,0c1,1.69-.24,3.48-1.22,4.51a6.82,6.82,0,0,0-1.9,3.81,4.89,4.89,0,0,0,1.61,4.51V9.34a2.66,2.66,0,0,1,0-.63.34.34,0,0,1,0-.1,4,4,0,0,1,.55-1.52,6,6,0,0,1,5-2.7,3.39,3.39,0,0,0-3.24-.12C9.61,3.33,10.21,1.76,8.3,0Z"/></g></g></svg>