<svg xmlns="http://www.w3.org/2000/svg" viewBox="0 0 12.71 46.46"><defs><style>.cls-1{fill:#af80ce;}.cls-2{fill:none;stroke:#af80ce;stroke-miterlimit:10;stroke-width:0.5px;}</style></defs><g id="Layer_2" data-name="Layer 2"><g id="Layer_1-2" data-name="Layer 1"><rect class="cls-1" x="0.51" y="22" width="2.46" height="2.46" transform="translate(19.39 38.42) rotate(135)"/><rect class="cls-2" x="3.27" y="22.62" width="1.21" height="1.21" transform="translate(23.05 36.91) rotate(135)"/><path class="cls-1" d="M12.71,23.14l-.88.47c-1.9,1.07-4.15,2.64-5,4.44A3.15,3.15,0,0,0,6.56,30a1.1,1.1,0,0,1-.25-.17c-1.85-1.33-1.74-3.12,0-4.65.16-.14.34-.28.53-.42a12.22,12.22,0,0,1,3.32-1.62,12.52,12.52,0,0,1-3.32-1.62,5.83,5.83,0,0,1-.53-.43c-1.74-1.53-1.85-3.3,0-4.64a2.71,2.71,0,0,1,.25-.17,3.13,3.13,0,0,0,.28,1.95c.83,1.79,3.08,3.36,5,4.44Z"/><path class="cls-1" d="M8.3,46.46c1-1.69-.24-3.48-1.22-4.51a6.82,6.82,0,0,1-1.9-3.81,4.89,4.89,0,0,1,1.61-4.51v3.49a2.66,2.66,0,0,0,0,.63.31.31,0,0,0,0,.1,3.9,3.9,0,0,0,.55,1.52,6,6,0,0,0,5,2.7,3.36,3.36,0,0,1-3.24.12C9.61,43.13,10.21,44.7,8.3,46.46Z"/><path class="cls-1" d="M8.3,0c1,1.69-.24,3.48-1.22,4.51a6.82,6.82,0,0,0-1.9,3.81,4.89,4.89,0,0,0,1.61,4.51V9.34a2.66,2.66,0,0,1,0-.63.34.34,0,0,1,0-.1,4,4,0,0,1,.55-1.52,6,6,0,0,1,5-2.7,3.39,3.39,0,0,0-3.24-.12C9.61,3.33,10.21,1.76,8.3,0Z"/></g></g></svg>