<svg xmlns="http://www.w3.org/2000/svg" viewBox="0 0 16.19 13.71"><defs><style>.cls-1{fill:#93d1bd;}</style></defs><g id="Layer_2" data-name="Layer 2"><g id="Layer_1-2" data-name="Layer 1"><path class="cls-1" d="M10,0c-.5,2.58,2.69,4.94,5.26,6.38l.89.48-.88.47c-2.57,1.44-5.77,3.8-5.27,6.38-3.12-2-1.5-5.15,3.59-6.85C8.54,5.15,6.92,2,10,0Z"/><path class="cls-1" d="M6.18,6.26C6.11,6,6.07,5.81,6,5.53l.43-.75L5.79,4,5,4.22l-.69-.33L4,3.09h-1l-.32.8-.69.33L1.1,4c-.31.41-.33.42-.65.82l.44.75-.18.73L0,6.76c.12.49.13.52.23,1l.86.12c.18.24.29.37.47.6l-.06.86.93.45.64-.58h.76l.63.58.93-.45,0-.86c.18-.23.29-.36.46-.6l.86-.12c.11-.49.11-.52.23-1ZM3.45,7.74A1.3,1.3,0,1,1,4.74,6.45,1.29,1.29,0,0,1,3.45,7.74Z"/></g></g></svg>