<svg xmlns="http://www.w3.org/2000/svg" viewBox="0 0 12.87 13.7"><defs><style>.cls-1{fill:#faf4cb;}</style></defs><g id="Layer_2" data-name="Layer 2"><g id="Layer_1-2" data-name="Layer 1"><path class="cls-1" d="M6.41,8.91c1.7,1.52,1.82,3.27,0,4.59a1.71,1.71,0,0,1-.27.2,3.1,3.1,0,0,0-.26-1.89C5.07,10,2.8,8.4.88,7.32L0,6.85l.89-.47c1.92-1.09,4.19-2.68,5-4.49A3.1,3.1,0,0,0,6.14,0a2.69,2.69,0,0,1,.27.2c1.82,1.33,1.7,3.08,0,4.58-.17.15-.34.29-.53.43A12.15,12.15,0,0,1,2.55,6.85,12.44,12.44,0,0,1,5.88,8.48C6.07,8.62,6.24,8.76,6.41,8.91Z"/><path class="cls-1" d="M9.22,7.85c1.55.3,3.65-1,3.65-1s-2.1-1.3-3.65-1A1,1,0,0,0,9.22,7.85Z"/></g></g></svg>