<svg xmlns="http://www.w3.org/2000/svg" viewBox="0 0 13.06 46.46"><defs><style>.cls-1{fill:none;stroke:#a1a1ff;stroke-miterlimit:10;stroke-width:0.75px;}.cls-2{fill:#a1a1ff;}</style></defs><g id="Layer_2" data-name="Layer 2"><g id="Layer_1-2" data-name="Layer 1"><rect class="cls-1" x="1.04" y="22" width="2.46" height="2.46" transform="translate(20.3 38.05) rotate(135)"/><path class="cls-2" d="M13.06,23.27l-.87.47a13.2,13.2,0,0,0-4.81,4.08,3.34,3.34,0,0,0-.47,2.31l-.06,0c-2.1-1.4-2-3.32,0-4.92.16-.14.34-.27.53-.41a12.51,12.51,0,0,1,3.13-1.49,12.87,12.87,0,0,1-3.13-1.49,5.7,5.7,0,0,1-.53-.41c-2-1.6-2.1-3.51,0-4.91l.06-.05a3.32,3.32,0,0,0,.47,2.31c1,1.65,3,3.08,4.8,4.08Z"/><path class="cls-2" d="M8.83,46.46C9.87,44.77,8.6,43,7.61,42a6.89,6.89,0,0,1-1.9-3.81,4.89,4.89,0,0,1,1.62-4.51v3.49a1.9,1.9,0,0,0,0,.63.31.31,0,0,0,0,.1,3.72,3.72,0,0,0,.54,1.52,6,6,0,0,0,5,2.7,3.38,3.38,0,0,1-3.25.12C10.15,43.13,10.74,44.7,8.83,46.46Z"/><path class="cls-2" d="M8.83,0c1,1.69-.23,3.48-1.22,4.51a6.89,6.89,0,0,0-1.9,3.81,4.89,4.89,0,0,0,1.62,4.51V9.34a1.9,1.9,0,0,1,0-.63.34.34,0,0,1,0-.1,3.77,3.77,0,0,1,.54-1.52,6,6,0,0,1,5-2.7,3.41,3.41,0,0,0-3.25-.12C10.15,3.33,10.74,1.76,8.83,0Z"/></g></g></svg>